<svg xmlns="http://www.w3.org/2000/svg" width="920" height="1160" viewBox="0 0 920 1160"><rect width="920" height="1160" fill="#1c303d"/><g font-family="sans-serif" fill="#e9d5aa"><text x="50" y="36" font-size="22">WAYFARER · LAYERED CAPITAL CROWNS</text><text x="50" y="62" font-size="13">18 measured crown budgets · Actual root positions · Formal avenues and original neighborhoods</text></g>
<polygon points="184.00,165.80 729.60,165.80 804.00,240.20 804.00,866.40 729.60,940.80 184.00,940.80 109.60,866.40 109.60,240.20" fill="#929981" stroke="#c1bb9a" stroke-width="1.1"/>
<polyline points="456.80,333.20 456.80,506.80" fill="none" stroke="#e0d4b2" stroke-width="43.4"/>
<polyline points="456.80,606.00 456.80,978.00" fill="none" stroke="#e0d4b2" stroke-width="43.4"/>
<polyline points="69.30,556.40 382.40,556.40" fill="none" stroke="#e0d4b2" stroke-width="37.2"/>
<polyline points="531.20,556.40 844.30,556.40" fill="none" stroke="#e0d4b2" stroke-width="37.2"/>
<polyline points="208.80,196.80 704.80,196.80 704.80,854.00 208.80,854.00 208.80,196.80" fill="none" stroke="#e0d4b2" stroke-width="31.0"/>
<polyline points="456.80,131.70 456.80,209.20" fill="none" stroke="#e0d4b2" stroke-width="27.900000000000002"/>
<polyline points="208.80,196.80 704.80,196.80" fill="none" stroke="#e0d4b2" stroke-width="24.8"/>
<polyline points="159.20,358.00 754.40,358.00" fill="none" stroke="#e0d4b2" stroke-width="24.8"/>
<polyline points="159.20,457.20 754.40,457.20" fill="none" stroke="#e0d4b2" stroke-width="24.8"/>
<polyline points="159.20,680.40 754.40,680.40" fill="none" stroke="#e0d4b2" stroke-width="24.8"/>
<polyline points="208.80,779.60 704.80,779.60" fill="none" stroke="#e0d4b2" stroke-width="24.8"/>
<polyline points="357.60,209.20 357.60,358.00" fill="none" stroke="#e0d4b2" stroke-width="24.8"/>
<polyline points="556.00,209.20 556.00,358.00" fill="none" stroke="#e0d4b2" stroke-width="24.8"/>
<polyline points="308.00,358.00 308.00,854.00" fill="none" stroke="#e0d4b2" stroke-width="27.900000000000002"/>
<polyline points="605.60,358.00 605.60,854.00" fill="none" stroke="#e0d4b2" stroke-width="27.900000000000002"/>
<polygon points="425.80,373.50 425.80,401.40 388.60,401.40 388.60,373.50" fill="#557959" stroke="none" stroke-width="1.1"/>
<polygon points="525.00,373.50 525.00,401.40 487.80,401.40 487.80,373.50" fill="#557959" stroke="none" stroke-width="1.1"/>
<polygon points="292.50,482.00 292.50,525.40 225.23,525.40 225.23,482.00" fill="#557959" stroke="none" stroke-width="1.1"/>
<polygon points="621.10,652.50 626.68,652.50 626.68,661.18 646.52,661.18 646.52,652.50 688.37,652.50 688.37,668.00 621.10,668.00" fill="#557959" stroke="none" stroke-width="1.1"/>
<polygon points="428.90,888.10 428.90,922.20 370.00,922.20 370.00,888.10" fill="#557959" stroke="none" stroke-width="1.1"/>
<polygon points="543.60,888.10 543.60,922.20 484.70,922.20 484.70,888.10" fill="#557959" stroke="none" stroke-width="1.1"/>
<polygon points="113.32,246.40 119.52,246.40 119.52,525.40 113.32,525.40" fill="#557959" stroke="none" stroke-width="1.1"/>
<polygon points="113.32,587.40 119.52,587.40 119.52,860.20 113.32,860.20" fill="#557959" stroke="none" stroke-width="1.1"/>
<polygon points="794.70,246.40 800.90,246.40 800.90,525.40 794.70,525.40" fill="#557959" stroke="none" stroke-width="1.1"/>
<polygon points="794.70,587.40 800.90,587.40 800.90,860.20 794.70,860.20" fill="#557959" stroke="none" stroke-width="1.1"/>
<polygon points="276.15,630.94 276.15,656.83 243.64,656.83 243.64,630.94" fill="#b08c67" stroke="#a6a78c" stroke-width="1.1"/>
<polygon points="675.99,714.31 675.99,747.24 633.93,747.24 633.93,714.31" fill="#b08c67" stroke="#a6a78c" stroke-width="1.1"/>
<polygon points="412.52,238.77 412.52,267.98 377.25,267.98 377.25,238.77" fill="#b08c67" stroke="#a6a78c" stroke-width="1.1"/>
<polygon points="525.81,233.50 525.81,263.33 499.39,263.33 499.39,233.50" fill="#b08c67" stroke="#a6a78c" stroke-width="1.1"/>
<polygon points="282.43,404.41 282.43,440.11 240.22,440.11 240.22,404.41" fill="#b08c67" stroke="#a6a78c" stroke-width="1.1"/>
<polygon points="418.86,270.02 418.86,299.91 390.55,299.91 390.55,270.02" fill="#b08c67" stroke="#a6a78c" stroke-width="1.1"/>
<polygon points="524.26,266.92 524.26,297.12 495.95,297.12 495.95,266.92" fill="#b08c67" stroke="#a6a78c" stroke-width="1.1"/>
<polygon points="579.66,631.44 579.66,653.68 557.86,653.68 557.86,631.44" fill="#b08c67" stroke="#a6a78c" stroke-width="1.1"/>
<polygon points="356.40,811.94 356.40,833.39 335.93,833.39 335.93,811.94" fill="#b08c67" stroke="#a6a78c" stroke-width="1.1"/>
<polygon points="282.42,371.38 279.25,371.98 277.03,373.74 276.27,378.62 276.69,382.96 277.12,386.18 277.14,386.34 277.27,386.76 278.45,388.31 282.81,389.33 291.35,388.65 291.72,387.95 292.74,383.09 293.19,379.42 293.37,374.46 293.17,373.65 284.97,371.87" fill="#b08c67" stroke="#a6a78c" stroke-width="1.1"/>
<polygon points="334.22,393.77 336.98,390.65 337.23,390.17 339.11,383.80 339.75,379.66 338.84,376.46 338.71,375.98 333.95,372.68 328.21,371.34 324.56,374.35 324.28,374.89 323.26,379.74 322.81,383.42 322.63,388.37 322.76,388.91 324.26,391.72 329.80,392.92" fill="#b08c67" stroke="#a6a78c" stroke-width="1.1"/>
<polygon points="332.03,395.05 326.13,397.45 323.81,399.22 323.01,400.03 322.62,402.01 325.06,413.10 325.28,413.76 331.51,416.38 335.05,417.55 340.04,414.34 340.31,413.71 340.57,410.22 340.75,406.17 340.92,402.36 340.97,398.89 340.92,398.67 340.71,398.11" fill="#b08c67" stroke="#a6a78c" stroke-width="1.1"/>
<polygon points="339.10,437.84 339.52,437.11 341.82,427.41 341.96,422.54 341.95,422.35 341.79,421.70 333.90,419.45 330.69,418.86 326.12,419.12 325.73,419.79 323.89,425.76 323.05,430.73 322.61,433.38 323.51,435.21 328.92,437.32" fill="#b08c67" stroke="#a6a78c" stroke-width="1.1"/>
<polygon points="330.43,470.57 324.56,472.47 324.28,473.12 322.62,479.34 323.61,488.06 323.84,488.74 328.67,490.94 335.14,493.36 335.66,493.38 336.19,493.36 342.06,486.23 342.19,485.76 342.16,485.24 342.12,484.93 339.48,473.65 339.27,473.08" fill="#b08c67" stroke="#a6a78c" stroke-width="1.1"/>
<polygon points="323.23,494.74 322.63,503.32 322.63,507.02 323.23,515.60 343.55,515.60 343.84,511.33 343.84,499.02 343.55,494.74" fill="#b08c67" stroke="#a6a78c" stroke-width="1.1"/>
<polygon points="348.51,534.73 348.80,530.18 348.80,521.52 348.51,516.97 323.24,516.97 322.63,524.00 322.63,527.70 323.24,534.73" fill="#b08c67" stroke="#a6a78c" stroke-width="1.1"/>
<polygon points="272.45,598.41 292.77,598.40 293.37,589.82 293.37,586.13 292.77,577.54 272.45,577.54 272.16,581.87 272.16,594.08" fill="#b08c67" stroke="#a6a78c" stroke-width="1.1"/>
<polygon points="278.29,599.77 275.28,601.01 272.65,605.50 271.69,609.92 272.33,613.70 274.54,618.53 284.40,621.69 290.19,619.13 290.45,618.53 293.40,609.33 291.15,602.31 290.92,601.63 283.58,599.77" fill="#b08c67" stroke="#a6a78c" stroke-width="1.1"/>
<polygon points="324.78,577.54 324.49,581.82 324.49,594.13 324.78,598.40 345.10,598.40 345.70,589.82 345.70,586.13 345.10,577.54" fill="#b08c67" stroke="#a6a78c" stroke-width="1.1"/>
<polygon points="334.14,627.25 340.58,627.13 346.51,624.08 346.89,622.86 345.10,601.88 344.80,601.10 334.13,599.91 330.02,599.91 327.34,601.13 323.30,603.54 322.51,622.62 322.65,623.11 322.81,623.59 329.98,627.25" fill="#b08c67" stroke="#a6a78c" stroke-width="1.1"/>
<polygon points="323.54,628.47 323.25,632.75 323.25,645.06 323.54,649.33 343.86,649.33 344.46,640.75 344.46,637.05 343.86,628.47" fill="#b08c67" stroke="#a6a78c" stroke-width="1.1"/>
<polygon points="272.45,693.79 272.16,698.12 272.16,710.33 272.45,714.66 292.77,714.66 293.37,706.07 293.37,702.38 292.77,693.79" fill="#b08c67" stroke="#a6a78c" stroke-width="1.1"/>
<polygon points="281.16,746.68 287.94,746.25 290.99,745.61 293.37,743.44 293.37,738.99 291.42,720.06 290.94,717.81 290.31,717.12 290.04,716.85 280.67,716.02 276.22,716.02 268.34,717.09 268.34,736.04 269.67,744.43 275.65,746.68" fill="#b08c67" stroke="#a6a78c" stroke-width="1.1"/>
<polygon points="292.76,765.81 293.37,758.78 293.37,755.07 292.76,748.04 267.49,748.04 267.20,752.59 267.20,761.26 267.49,765.81" fill="#b08c67" stroke="#a6a78c" stroke-width="1.1"/>
<polygon points="323.23,693.79 322.63,702.38 322.63,706.07 323.23,714.66 343.55,714.66 343.84,710.33 343.84,698.12 343.55,693.79" fill="#b08c67" stroke="#a6a78c" stroke-width="1.1"/>
<polygon points="341.57,737.59 347.85,732.35 347.85,727.12 347.76,722.32 343.90,719.38 331.28,716.02 327.19,716.02 323.27,719.56 323.05,720.15 322.63,725.12 322.63,728.82 323.05,733.79 323.33,734.54 337.86,737.59" fill="#b08c67" stroke="#a6a78c" stroke-width="1.1"/>
<polygon points="323.23,738.95 322.63,747.54 322.63,751.23 323.23,759.82 343.55,759.82 343.84,755.49 343.84,743.28 343.55,738.95" fill="#b08c67" stroke="#a6a78c" stroke-width="1.1"/>
<polygon points="292.77,813.86 293.37,805.27 293.37,801.58 292.77,792.99 272.45,792.99 272.16,797.32 272.16,809.53 272.45,813.86" fill="#b08c67" stroke="#a6a78c" stroke-width="1.1"/>
<polygon points="272.49,815.22 267.24,815.50 267.24,835.53 272.49,835.80 287.49,835.80 293.37,835.53 293.37,815.49 287.49,815.22" fill="#b08c67" stroke="#a6a78c" stroke-width="1.1"/>
<polygon points="323.24,792.99 322.63,800.02 322.63,803.73 323.24,810.76 348.51,810.76 348.80,806.21 348.80,797.54 348.51,792.99" fill="#b08c67" stroke="#a6a78c" stroke-width="1.1"/>
<polygon points="570.05,371.39 569.76,375.72 569.76,387.93 570.05,392.26 590.37,392.26 590.97,383.67 590.97,379.98 590.37,371.39" fill="#b08c67" stroke="#a6a78c" stroke-width="1.1"/>
<polygon points="576.73,422.86 585.10,422.51 588.81,419.50 589.04,418.91 590.97,403.77 590.97,399.24 588.62,397.05 575.60,393.62 571.24,393.62 565.63,398.27 565.63,404.69 565.78,417.49 569.98,422.86" fill="#b08c67" stroke="#a6a78c" stroke-width="1.1"/>
<polygon points="565.09,424.22 564.80,428.77 564.80,437.44 565.09,441.98 590.36,441.98 590.97,434.96 590.97,431.25 590.36,424.22" fill="#b08c67" stroke="#a6a78c" stroke-width="1.1"/>
<polygon points="590.37,491.46 590.97,482.87 590.97,479.18 590.37,470.59 570.05,470.59 569.76,474.92 569.76,487.13 570.05,491.46" fill="#b08c67" stroke="#a6a78c" stroke-width="1.1"/>
<polygon points="584.06,521.10 587.97,517.16 589.85,514.97 590.98,510.97 588.94,496.86 585.83,495.05 575.85,492.97 572.20,492.81 566.06,498.23 565.87,502.40 565.67,507.88 565.62,514.99 569.81,520.50 575.78,520.76" fill="#b08c67" stroke="#a6a78c" stroke-width="1.1"/>
<polygon points="590.37,598.40 590.97,589.82 590.97,586.13 590.37,577.54 570.05,577.54 569.76,581.87 569.76,594.08 570.05,598.40" fill="#b08c67" stroke="#a6a78c" stroke-width="1.1"/>
<polygon points="570.09,599.77 564.84,600.05 564.84,626.12 570.09,626.40 585.09,626.40 590.97,626.12 590.97,600.04 585.09,599.77" fill="#b08c67" stroke="#a6a78c" stroke-width="1.1"/>
<polygon points="641.15,641.81 641.44,637.48 641.44,625.27 641.15,620.94 620.83,620.94 620.23,629.53 620.23,633.22 620.83,641.81" fill="#b08c67" stroke="#a6a78c" stroke-width="1.1"/>
<polygon points="590.04,714.65 590.97,709.43 590.97,699.02 590.04,693.79 569.77,693.79 569.49,698.12 569.49,710.33 569.77,714.65" fill="#b08c67" stroke="#a6a78c" stroke-width="1.1"/>
<polygon points="580.66,716.02 570.75,716.20 566.97,717.18 566.29,717.82 566.04,718.09 565.73,721.11 565.73,727.09 567.24,741.93 567.46,742.51 571.48,746.13 575.31,746.13 581.01,745.74 591.12,741.54 591.12,734.91 590.85,730.51 590.52,726.92 589.78,721.48 587.34,716.02" fill="#b08c67" stroke="#a6a78c" stroke-width="1.1"/>
<polygon points="565.09,747.49 564.80,752.04 564.80,760.71 565.09,765.26 590.36,765.26 590.97,758.23 590.97,754.52 590.36,747.49" fill="#b08c67" stroke="#a6a78c" stroke-width="1.1"/>
<polygon points="590.04,832.46 590.97,827.23 590.97,816.82 590.04,811.59 569.77,811.59 569.49,815.92 569.49,828.13 569.77,832.46" fill="#b08c67" stroke="#a6a78c" stroke-width="1.1"/>
<polygon points="621.16,792.99 620.23,798.22 620.23,808.63 621.16,813.86 641.43,813.86 641.72,809.53 641.72,797.32 641.43,792.99" fill="#b08c67" stroke="#a6a78c" stroke-width="1.1"/>
<polygon points="620.84,815.22 620.23,822.25 620.23,825.95 620.84,832.98 646.11,832.98 646.40,828.43 646.40,819.77 646.11,815.22" fill="#b08c67" stroke="#a6a78c" stroke-width="1.1"/>
<polygon points="742.18,392.26 742.47,387.93 742.47,375.72 742.18,371.39 721.91,371.39 720.98,376.62 720.98,387.03 721.91,392.25" fill="#b08c67" stroke="#a6a78c" stroke-width="1.1"/>
<polygon points="741.86,420.25 747.12,419.97 747.12,393.90 741.86,393.62 726.86,393.62 720.98,393.89 720.98,419.97 726.86,420.25" fill="#b08c67" stroke="#a6a78c" stroke-width="1.1"/>
<polygon points="742.18,442.48 742.47,438.20 742.47,425.89 742.18,421.61 721.91,421.61 720.98,426.84 720.98,437.25 721.91,442.48" fill="#b08c67" stroke="#a6a78c" stroke-width="1.1"/>
<polygon points="742.18,491.46 742.47,487.13 742.47,474.92 742.18,470.59 721.91,470.59 720.98,475.82 720.98,486.23 721.91,491.46" fill="#b08c67" stroke="#a6a78c" stroke-width="1.1"/>
<polygon points="741.86,519.45 747.12,519.17 747.12,493.10 741.86,492.82 726.86,492.82 720.98,493.09 720.98,519.17 726.86,519.45" fill="#b08c67" stroke="#a6a78c" stroke-width="1.1"/>
<polygon points="688.62,634.29 688.20,625.29 687.94,624.60 679.23,620.94 674.42,620.94 668.36,621.14 663.22,626.32 663.22,631.82 664.91,640.48 666.96,647.17 667.10,647.50 668.05,649.13 674.47,650.26 679.11,650.26 685.32,648.46 687.92,647.71 688.20,646.98 688.62,637.98" fill="#b08c67" stroke="#a6a78c" stroke-width="1.1"/>
<polygon points="726.86,577.54 720.98,577.82 720.98,601.88 726.86,602.16 741.86,602.16 747.12,601.88 747.12,577.82 741.86,577.54" fill="#b08c67" stroke="#a6a78c" stroke-width="1.1"/>
<polygon points="721.59,603.52 720.98,610.55 720.98,639.78 721.48,644.97 727.31,645.25 742.31,645.25 747.56,644.97 747.56,622.92 747.15,608.07 746.86,603.52" fill="#b08c67" stroke="#a6a78c" stroke-width="1.1"/>
<polygon points="721.59,646.61 720.98,653.64 720.98,657.34 721.59,664.37 746.86,664.37 747.15,659.83 747.15,651.16 746.86,646.61" fill="#b08c67" stroke="#a6a78c" stroke-width="1.1"/>
<polygon points="721.59,693.79 720.98,700.82 720.98,718.39 720.98,730.05 721.48,735.25 727.31,735.52 742.31,735.52 747.56,735.24 747.56,713.20 747.15,698.34 746.86,693.79" fill="#b08c67" stroke="#a6a78c" stroke-width="1.1"/>
<polygon points="746.86,754.64 747.15,750.10 747.15,741.43 746.86,736.88 721.59,736.88 720.98,743.91 720.98,747.62 721.59,754.64" fill="#b08c67" stroke="#a6a78c" stroke-width="1.1"/>
<polygon points="662.74,792.99 662.45,797.54 662.04,812.40 662.04,834.44 667.29,834.72 682.29,834.72 688.12,834.45 688.62,829.25 688.62,800.02 688.01,792.99" fill="#b08c67" stroke="#a6a78c" stroke-width="1.1"/>
<polygon points="721.59,773.82 720.98,780.85 720.98,800.02 720.98,803.73 721.59,810.76 746.86,810.76 747.15,806.21 747.15,788.09 747.15,777.31 746.85,773.82" fill="#b08c67" stroke="#a6a78c" stroke-width="1.1"/>
<polygon points="727.43,812.12 721.58,812.39 720.98,825.09 720.98,832.66 721.64,836.46 727.43,836.73 737.59,836.73 742.43,836.73 747.69,836.46 747.69,812.40 742.43,812.12" fill="#b08c67" stroke="#a6a78c" stroke-width="1.1"/>
<polygon points="166.74,371.39 166.45,375.94 166.45,384.61 166.74,389.16 192.01,389.16 192.62,382.13 192.62,378.42 192.01,371.39" fill="#b08c67" stroke="#a6a78c" stroke-width="1.1"/>
<polygon points="177.14,390.52 171.19,393.08 166.01,396.28 165.99,404.80 165.99,410.42 166.18,415.40 170.98,417.94 176.62,418.07 181.90,418.07 186.76,417.82 190.26,416.53 192.62,415.60 192.62,409.25 190.57,394.15 181.36,390.52" fill="#b08c67" stroke="#a6a78c" stroke-width="1.1"/>
<polygon points="192.01,437.19 192.62,430.17 192.62,426.46 192.01,419.43 166.74,419.43 166.45,423.98 166.45,432.65 166.74,437.19" fill="#b08c67" stroke="#a6a78c" stroke-width="1.1"/>
<polygon points="250.86,389.16 251.15,384.61 251.15,375.94 250.86,371.39 225.59,371.39 224.98,378.42 224.98,382.13 225.59,389.16" fill="#b08c67" stroke="#a6a78c" stroke-width="1.1"/>
<polygon points="166.74,470.59 166.45,475.14 166.45,483.81 166.74,488.36 192.01,488.36 192.62,481.33 192.62,477.62 192.01,470.59" fill="#b08c67" stroke="#a6a78c" stroke-width="1.1"/>
<polygon points="171.17,489.72 165.91,490.00 165.91,510.03 166.45,524.88 166.74,529.43 192.01,529.43 192.62,522.40 192.62,492.64 191.92,489.99 186.17,489.72" fill="#b08c67" stroke="#a6a78c" stroke-width="1.1"/>
<polygon points="166.74,577.54 166.45,582.09 166.45,590.76 166.74,595.31 192.01,595.31 192.62,588.28 192.62,584.57 192.01,577.54" fill="#b08c67" stroke="#a6a78c" stroke-width="1.1"/>
<polygon points="171.17,596.67 165.91,596.95 165.91,616.98 166.45,631.83 166.74,636.38 192.01,636.38 192.62,629.35 192.62,599.59 191.92,596.94 186.17,596.67" fill="#b08c67" stroke="#a6a78c" stroke-width="1.1"/>
<polygon points="171.17,637.74 165.91,638.02 165.91,664.10 171.17,664.37 186.17,664.37 192.02,664.10 192.62,649.94 192.62,642.39 191.97,638.01 186.17,637.74" fill="#b08c67" stroke="#a6a78c" stroke-width="1.1"/>
<polygon points="250.86,595.31 251.15,590.76 251.15,582.09 250.86,577.54 225.59,577.54 224.98,584.57 224.98,588.28 225.59,595.31" fill="#b08c67" stroke="#a6a78c" stroke-width="1.1"/>
<polygon points="231.43,596.67 225.58,596.94 224.98,609.64 224.98,617.21 225.64,621.01 231.43,621.28 246.43,621.28 251.69,621.01 251.69,596.95 246.43,596.67" fill="#b08c67" stroke="#a6a78c" stroke-width="1.1"/>
<polygon points="166.75,693.79 166.45,697.29 166.45,708.06 166.75,711.56 192.01,711.56 192.62,704.53 192.62,700.82 192.01,693.79" fill="#b08c67" stroke="#a6a78c" stroke-width="1.1"/>
<polygon points="182.38,739.33 186.92,737.38 188.46,735.54 189.74,732.75 192.67,720.71 191.94,719.91 191.79,719.77 184.48,714.16 178.94,712.91 172.71,714.04 169.27,717.27 165.45,723.98 165.22,729.34 165.27,735.53 171.49,738.58 177.70,739.13" fill="#b08c67" stroke="#a6a78c" stroke-width="1.1"/>
<polygon points="166.74,740.69 166.45,745.24 166.45,753.91 166.74,758.45 192.01,758.45 192.62,751.42 192.62,747.72 192.01,740.69" fill="#b08c67" stroke="#a6a78c" stroke-width="1.1"/>
<polygon points="225.59,693.79 224.98,700.82 224.98,704.53 225.59,711.56 250.86,711.56 251.15,707.01 251.15,698.34 250.86,693.79" fill="#b08c67" stroke="#a6a78c" stroke-width="1.1"/>
<polygon points="231.32,712.92 226.68,716.89 224.98,732.91 224.98,736.92 226.74,741.29 230.19,743.51 231.27,743.85 240.75,742.78 253.08,741.32 253.08,724.60 251.90,717.48 246.40,713.27 234.80,712.92" fill="#b08c67" stroke="#a6a78c" stroke-width="1.1"/>
<polygon points="250.86,762.96 251.15,758.42 251.15,749.75 250.86,745.20 225.59,745.20 224.98,752.23 224.98,755.93 225.59,762.96" fill="#b08c67" stroke="#a6a78c" stroke-width="1.1"/>
<polygon points="166.75,773.82 166.45,777.31 166.45,806.21 166.74,810.75 192.01,810.75 192.62,803.73 192.62,780.85 192.01,773.82" fill="#b08c67" stroke="#a6a78c" stroke-width="1.1"/>
<polygon points="185.69,837.13 191.72,835.03 192.23,834.84 192.62,833.60 191.82,817.61 187.09,812.12 180.65,812.12 175.52,814.35 174.12,815.33 166.37,822.39 163.42,826.71 163.82,828.30 164.52,829.44 181.89,837.13" fill="#b08c67" stroke="#a6a78c" stroke-width="1.1"/>
<polygon points="250.86,810.75 251.15,806.21 251.15,797.54 250.86,792.99 225.59,792.99 224.98,800.02 224.98,803.73 225.59,810.75" fill="#b08c67" stroke="#a6a78c" stroke-width="1.1"/>
<polygon points="245.86,836.73 250.79,836.47 253.33,834.05 253.33,823.85 251.02,812.39 245.86,812.12 230.86,812.12 224.98,812.39 224.98,836.46 230.86,836.73" fill="#b08c67" stroke="#a6a78c" stroke-width="1.1"/>
<polygon points="411.52,632.39 416.07,632.68 424.74,632.68 429.29,632.39 429.29,607.12 422.26,606.51 418.55,606.51 411.52,607.12" fill="#b08c67" stroke="#a6a78c" stroke-width="1.1"/>
<polygon points="413.09,634.49 408.17,634.75 405.62,637.03 405.62,646.38 407.94,656.82 413.09,657.09 428.09,657.09 433.92,656.82 434.42,651.62 434.42,639.96 433.92,634.76 428.09,634.49" fill="#b08c67" stroke="#a6a78c" stroke-width="1.1"/>
<polygon points="484.31,632.39 488.86,632.68 497.53,632.68 502.08,632.39 502.08,607.12 495.05,606.51 491.34,606.51 484.31,607.12" fill="#b08c67" stroke="#a6a78c" stroke-width="1.1"/>
<polygon points="500.63,655.07 505.55,654.81 508.11,652.67 508.11,644.17 505.77,634.76 500.63,634.49 485.63,634.49 479.79,634.76 479.18,644.56 479.18,652.15 479.88,654.81 485.63,655.07" fill="#b08c67" stroke="#a6a78c" stroke-width="1.1"/>
<polygon points="408.54,693.79 408.25,698.34 408.25,707.01 408.54,711.55 433.81,711.55 434.42,704.53 434.42,700.82 433.81,693.79" fill="#b08c67" stroke="#a6a78c" stroke-width="1.1"/>
<polygon points="414.93,728.37 408.77,737.60 407.42,742.48 406.84,745.90 406.03,751.60 410.01,757.47 415.87,758.45 420.19,758.51 424.98,758.52 429.27,756.52 433.46,742.44 434.47,736.41 432.56,735.11 425.55,730.55 420.57,729.31" fill="#b08c67" stroke="#a6a78c" stroke-width="1.1"/>
<polygon points="479.79,693.79 479.18,700.82 479.18,704.53 479.79,711.55 505.06,711.55 505.35,707.01 505.35,698.34 505.06,693.79" fill="#b08c67" stroke="#a6a78c" stroke-width="1.1"/>
<polygon points="496.19,728.42 491.07,729.16 481.93,732.39 479.18,752.40 479.30,756.42 481.32,761.57 481.52,762.06 482.77,762.44 490.74,761.62 496.47,760.51 506.26,757.34 508.30,748.71 508.30,729.77 501.25,728.42" fill="#b08c67" stroke="#a6a78c" stroke-width="1.1"/>
<polygon points="433.81,824.70 434.42,817.68 434.42,813.97 433.81,806.94 408.55,806.94 408.25,810.44 408.25,821.21 408.55,824.70" fill="#b08c67" stroke="#a6a78c" stroke-width="1.1"/>
<polygon points="505.06,824.71 505.35,820.16 505.35,811.49 505.06,806.94 479.79,806.94 479.18,813.97 479.18,817.68 479.79,824.71" fill="#b08c67" stroke="#a6a78c" stroke-width="1.1"/>
<polygon points="408.54,422.54 408.25,427.09 408.25,435.76 408.54,440.31 433.81,440.31 434.42,433.28 434.42,429.57 433.81,422.54" fill="#b08c67" stroke="#a6a78c" stroke-width="1.1"/>
<polygon points="479.79,422.54 479.18,429.57 479.18,433.28 479.79,440.31 505.06,440.31 505.35,435.76 505.35,427.09 505.06,422.54" fill="#b08c67" stroke="#a6a78c" stroke-width="1.1"/>
<polygon points="419.92,472.87 408.57,476.69 407.94,476.96 407.94,500.72 408.76,501.03 424.20,502.55 429.17,502.55 431.12,500.73 433.95,497.93 434.29,483.08 434.29,478.89 429.86,473.35 423.89,472.87" fill="#b08c67" stroke="#a6a78c" stroke-width="1.1"/>
<polygon points="495.27,496.32 501.61,496.32 504.41,495.48 504.97,495.27 507.82,491.48 508.15,487.40 508.46,481.93 508.46,477.78 503.82,471.76 497.57,471.76 494.05,471.81 488.62,472.15 484.41,473.76 479.95,478.13 479.95,481.53 480.28,492.21 482.67,495.27 483.28,495.50 494.00,496.32" fill="#b08c67" stroke="#a6a78c" stroke-width="1.1"/>
<polygon points="350.78,371.08 344.94,371.69 340.59,382.14 340.51,383.18 340.38,386.44 343.27,395.17 346.09,397.60 351.78,399.68 366.02,399.93 369.35,399.93 374.71,399.49 376.58,396.24 376.74,395.87 378.12,385.51 378.12,379.57 376.54,371.67 358.32,371.08" fill="#b08c67" stroke="#a6a78c" stroke-width="1.1"/>
<polygon points="380.73,667.32 399.05,667.13 403.74,662.08 403.74,656.52 403.29,647.68 398.90,637.27 384.26,637.04 380.29,637.04 375.14,637.11 370.00,642.55 370.00,647.73 370.28,657.00 374.52,667.32" fill="#b08c67" stroke="#a6a78c" stroke-width="1.1"/>
<polygon points="540.38,716.71 540.27,702.87 537.34,699.57 531.69,693.63 528.12,693.63 512.75,693.80 506.95,698.30 506.72,713.35 506.72,717.98 510.77,721.79 526.62,722.11 533.06,722.11 533.96,721.73 539.94,717.67 540.38,717.32" fill="#b08c67" stroke="#a6a78c" stroke-width="1.1"/>
<polygon points="535.17,821.94 535.55,832.27 539.06,835.84 554.00,837.82 557.85,837.82 562.82,837.65 568.04,835.24 568.41,834.02 568.21,826.57 566.97,809.45 547.93,809.45 544.82,810.62 535.17,815.81" fill="#b08c67" stroke="#a6a78c" stroke-width="1.1"/>
<polygon points="407.12,708.66 406.85,702.97 405.10,699.12 403.10,695.08 386.47,693.48 382.34,693.48 380.29,695.19 376.20,699.02 376.20,703.33 376.26,717.95 380.98,720.93 385.95,723.36 392.51,723.36 400.83,723.36 406.93,717.67 407.12,713.36" fill="#b08c67" stroke="#a6a78c" stroke-width="1.1"/>
<polygon points="537.48,444.13 558.14,439.10 560.27,437.50 563.26,429.19 563.86,423.53 563.86,418.95 562.05,411.67 545.38,411.67 538.51,412.87 536.01,419.70 532.19,441.36 532.21,441.85 532.27,442.40 533.36,443.08 535.39,443.61" fill="#b08c67" stroke="#a6a78c" stroke-width="1.1"/>
<polygon points="341.64,436.00 343.78,439.78 346.59,443.56 362.28,444.12 366.97,444.12 368.59,443.50 373.19,440.16 373.55,438.99 372.68,425.00 370.24,416.12 369.64,415.43 369.37,415.15 368.79,415.12 347.80,421.02 346.44,421.95 344.98,424.85 342.61,429.98 342.31,430.95 341.97,433.41" fill="#b08c67" stroke="#a6a78c" stroke-width="1.1"/>
<polygon points="356.55,822.38 361.13,822.66 378.87,822.66 383.45,822.38 383.45,793.68 368.89,792.68 361.31,792.68 356.55,793.75" fill="#b08c67" stroke="#a6a78c" stroke-width="1.1"/>
<polygon points="563.25,737.23 558.67,736.94 540.93,736.94 536.35,737.23 536.35,765.93 547.96,766.52 551.64,766.52 563.25,765.93" fill="#b08c67" stroke="#a6a78c" stroke-width="1.1"/>
<polygon points="402.05,414.83 397.47,414.54 379.73,414.54 375.15,414.83 375.15,443.53 386.76,444.12 390.44,444.12 402.05,443.53" fill="#b08c67" stroke="#a6a78c" stroke-width="1.1"/>
<polygon points="516.12,836.76 520.77,837.69 524.10,837.82 531.76,837.82 533.88,836.63 533.88,811.53 529.33,811.25 520.67,811.25 516.12,811.53" fill="#b08c67" stroke="#a6a78c" stroke-width="1.1"/>
<polygon points="564.26,696.03 559.71,695.75 551.05,695.75 546.50,696.03 546.50,721.28 554.46,722.31 562.14,722.31 564.26,721.12" fill="#b08c67" stroke="#a6a78c" stroke-width="1.1"/>
<polygon points="532.45,371.08 525.42,371.69 525.42,396.95 528.91,397.25 551.67,397.65 560.33,397.65 564.88,397.37 564.88,372.11 556.92,371.08" fill="#b08c67" stroke="#a6a78c" stroke-width="1.1"/>
<polygon points="513.02,443.09 520.98,444.12 528.66,444.12 530.78,442.93 530.78,417.83 526.23,417.55 517.57,417.55 513.02,417.83" fill="#b08c67" stroke="#a6a78c" stroke-width="1.1"/>
<polygon points="252.62,372.27 252.62,397.37 257.17,397.65 265.83,397.65 270.38,397.37 270.38,372.11 262.42,371.08 254.74,371.08" fill="#b08c67" stroke="#a6a78c" stroke-width="1.1"/>
<polygon points="406.78,811.53 402.23,811.25 393.57,811.25 389.02,811.53 389.02,836.79 396.98,837.82 404.66,837.82 406.78,836.63" fill="#b08c67" stroke="#a6a78c" stroke-width="1.1"/>
<polygon points="527.68,738.72 519.72,737.69 512.04,737.69 509.92,738.88 509.92,763.97 514.47,764.26 523.13,764.26 527.68,763.97" fill="#b08c67" stroke="#a6a78c" stroke-width="1.1"/>
<polygon points="345.62,765.49 353.58,766.52 361.26,766.52 363.38,765.33 363.38,740.23 358.83,739.95 350.17,739.95 345.62,740.23" fill="#b08c67" stroke="#a6a78c" stroke-width="1.1"/>
<polygon points="345.62,666.29 353.58,667.32 361.26,667.32 363.38,666.13 363.38,641.03 358.83,640.75 350.17,640.75 345.62,641.03" fill="#b08c67" stroke="#a6a78c" stroke-width="1.1"/>
<polygon points="345.62,496.57 350.17,496.85 358.83,496.85 363.38,496.57 363.38,471.31 355.42,470.28 347.74,470.28 345.62,471.47" fill="#b08c67" stroke="#a6a78c" stroke-width="1.1"/>
<polygon points="539.27,640.75 516.51,641.15 513.02,641.45 513.02,666.71 520.05,667.32 550.36,667.32 552.48,666.13 552.48,641.03 547.93,640.75" fill="#b08c67" stroke="#a6a78c" stroke-width="1.1"/>
<polygon points="527.68,472.71 524.19,472.42 513.41,472.42 509.92,472.71 509.92,497.93 514.58,498.86 523.02,498.86 527.68,497.93" fill="#b08c67" stroke="#a6a78c" stroke-width="1.1"/>
<polygon points="547.12,471.22 547.12,496.44 551.67,496.73 560.33,496.73 564.88,496.44 564.88,471.22 560.22,470.28 551.78,470.28" fill="#b08c67" stroke="#a6a78c" stroke-width="1.1"/>
<polygon points="403.68,740.36 399.13,740.08 390.47,740.08 385.92,740.36 385.92,765.58 390.58,766.52 399.02,766.52 403.68,765.58" fill="#b08c67" stroke="#a6a78c" stroke-width="1.1"/>
<polygon points="422.10,598.85 423.04,594.20 423.04,585.75 422.10,581.09 396.88,581.09 396.60,585.64 396.60,594.31 396.88,598.85" fill="#b08c67" stroke="#a6a78c" stroke-width="1.1"/>
<polygon points="366.48,694.42 361.82,693.48 353.38,693.48 348.72,694.42 348.72,719.64 353.27,719.93 361.93,719.93 366.48,719.64" fill="#b08c67" stroke="#a6a78c" stroke-width="1.1"/>
<polygon points="399.98,513.95 399.70,518.49 399.70,527.16 399.98,531.71 425.20,531.71 426.14,527.05 426.14,518.60 425.20,513.95" fill="#b08c67" stroke="#a6a78c" stroke-width="1.1"/>
<polygon points="515.17,598.85 515.45,594.31 515.45,585.64 515.17,581.09 489.95,581.09 489.01,585.75 489.01,594.19 489.95,598.85" fill="#b08c67" stroke="#a6a78c" stroke-width="1.1"/>
<polygon points="514.55,531.71 514.83,527.16 514.83,518.49 514.55,513.95 489.33,513.95 488.39,518.60 488.39,527.05 489.33,531.71" fill="#b08c67" stroke="#a6a78c" stroke-width="1.1"/>
<polygon points="367.32,497.70 374.35,498.31 378.05,498.31 385.08,497.70 385.08,472.43 381.59,472.14 370.81,472.14 367.32,472.43" fill="#b08c67" stroke="#a6a78c" stroke-width="1.1"/>
<polygon points="147.22,536.51 154.25,537.12 157.95,537.12 164.98,536.51 164.98,511.25 161.49,510.95 150.71,510.95 147.22,511.25" fill="#b08c67" stroke="#a6a78c" stroke-width="1.1"/>
<polygon points="755.65,575.68 748.62,576.29 748.62,601.56 753.17,601.85 783.53,601.85 788.08,601.56 788.08,576.29 781.05,575.68" fill="#b08c67" stroke="#a6a78c" stroke-width="1.1"/>
<polygon points="766.38,511.24 761.83,510.95 753.17,510.95 748.62,511.24 748.62,536.51 755.65,537.12 759.35,537.12 766.38,536.51" fill="#b08c67" stroke="#a6a78c" stroke-width="1.1"/>
<polygon points="770.32,536.51 777.35,537.12 781.05,537.12 788.08,536.51 788.08,511.24 783.53,510.95 774.87,510.95 770.32,511.24" fill="#b08c67" stroke="#a6a78c" stroke-width="1.1"/>
<polygon points="125.52,536.51 132.55,537.12 136.25,537.12 143.28,536.51 143.28,511.24 138.73,510.95 130.07,510.95 125.52,511.24" fill="#b08c67" stroke="#a6a78c" stroke-width="1.1"/>
<polygon points="129.45,575.68 122.42,576.29 122.42,601.56 126.97,601.85 157.33,601.85 161.88,601.56 161.88,576.29 154.85,575.68" fill="#b08c67" stroke="#a6a78c" stroke-width="1.1"/>
<polygon points="317.72,344.31 324.75,344.92 328.45,344.92 335.48,344.31 335.48,319.04 330.93,318.75 322.27,318.75 317.72,319.04" fill="#b08c67" stroke="#a6a78c" stroke-width="1.1"/>
<polygon points="318.64,277.82 318.35,282.37 318.35,312.73 318.64,317.28 343.91,317.28 344.52,310.25 344.52,284.85 343.91,277.82" fill="#b08c67" stroke="#a6a78c" stroke-width="1.1"/>
<polygon points="318.64,234.42 318.35,238.97 318.35,260.67 318.35,269.33 318.64,273.88 343.91,273.88 344.52,266.85 344.52,241.45 343.91,234.42" fill="#b08c67" stroke="#a6a78c" stroke-width="1.1"/>
<polygon points="316.88,213.59 309.85,212.98 306.15,212.98 299.12,213.59 299.12,238.86 303.67,239.15 312.33,239.15 316.88,238.86" fill="#b08c67" stroke="#a6a78c" stroke-width="1.1"/>
<polygon points="262.75,212.98 255.72,213.59 255.72,238.86 260.27,239.15 290.63,239.15 295.18,238.86 295.18,213.59 288.15,212.98" fill="#b08c67" stroke="#a6a78c" stroke-width="1.1"/>
<polygon points="251.78,213.59 244.75,212.98 241.05,212.98 234.02,213.59 234.02,238.86 238.57,239.15 247.23,239.15 251.78,238.86" fill="#b08c67" stroke="#a6a78c" stroke-width="1.1"/>
<polygon points="225.59,240.62 224.98,247.65 224.98,251.35 225.59,258.38 250.86,258.38 251.15,253.83 251.15,245.17 250.86,240.62" fill="#b08c67" stroke="#a6a78c" stroke-width="1.1"/>
<polygon points="723.82,344.31 730.85,344.92 734.55,344.92 741.58,344.31 741.58,319.04 737.03,318.75 728.37,318.75 723.82,319.04" fill="#b08c67" stroke="#a6a78c" stroke-width="1.1"/>
<polygon points="721.59,299.52 720.98,306.55 720.98,310.25 721.59,317.28 746.86,317.28 747.15,312.73 747.15,304.07 746.86,299.52" fill="#b08c67" stroke="#a6a78c" stroke-width="1.1"/>
<polygon points="721.59,277.82 720.98,284.85 720.98,288.55 721.59,295.58 746.86,295.58 747.15,291.03 747.15,282.37 746.86,277.82" fill="#b08c67" stroke="#a6a78c" stroke-width="1.1"/>
<polygon points="746.86,273.88 747.15,269.33 747.15,260.67 746.86,256.12 721.59,256.12 720.98,263.15 720.98,266.85 721.59,273.88" fill="#b08c67" stroke="#a6a78c" stroke-width="1.1"/>
<polygon points="746.86,252.18 747.15,247.63 747.15,238.97 746.86,234.42 721.59,234.42 720.98,241.45 720.98,245.15 721.59,252.18" fill="#b08c67" stroke="#a6a78c" stroke-width="1.1"/>
<polygon points="721.59,212.72 720.98,219.75 720.98,223.45 721.59,230.48 746.86,230.48 747.15,225.93 747.15,217.27 746.86,212.72" fill="#b08c67" stroke="#a6a78c" stroke-width="1.1"/>
<polygon points="165.82,344.31 172.85,344.92 176.55,344.92 183.58,344.31 183.58,319.04 179.03,318.75 170.37,318.75 165.82,319.04" fill="#b08c67" stroke="#a6a78c" stroke-width="1.1"/>
<polygon points="166.74,299.52 166.45,304.07 166.45,312.73 166.74,317.28 192.01,317.28 192.62,310.25 192.62,306.55 192.01,299.52" fill="#b08c67" stroke="#a6a78c" stroke-width="1.1"/>
<polygon points="192.01,295.58 192.62,288.55 192.62,284.85 192.01,277.82 166.74,277.82 166.45,282.37 166.45,286.80 166.45,291.03 166.74,295.58" fill="#b08c67" stroke="#a6a78c" stroke-width="1.1"/>
<polygon points="166.74,256.12 166.45,260.67 166.45,269.33 166.74,273.88 192.01,273.88 192.62,266.85 192.62,263.15 192.01,256.12" fill="#b08c67" stroke="#a6a78c" stroke-width="1.1"/>
<polygon points="166.74,234.42 166.45,238.97 166.45,247.63 166.74,252.18 192.01,252.18 192.62,245.15 192.62,241.45 192.01,234.42" fill="#b08c67" stroke="#a6a78c" stroke-width="1.1"/>
<polygon points="192.01,230.48 192.62,223.45 192.62,219.75 192.01,212.72 166.74,212.72 166.45,217.27 166.45,225.93 166.74,230.48" fill="#b08c67" stroke="#a6a78c" stroke-width="1.1"/>
<polygon points="589.68,319.04 585.13,318.75 576.47,318.75 571.92,319.04 571.92,344.31 578.95,344.92 582.65,344.92 589.68,344.31" fill="#b08c67" stroke="#a6a78c" stroke-width="1.1"/>
<polygon points="569.69,299.52 569.08,306.55 569.08,310.25 569.69,317.28 594.96,317.28 595.25,312.73 595.25,304.07 594.96,299.52" fill="#b08c67" stroke="#a6a78c" stroke-width="1.1"/>
<polygon points="594.96,295.58 595.25,291.03 595.25,282.37 594.96,277.82 569.69,277.82 569.08,284.85 569.08,288.55 569.69,295.58" fill="#b08c67" stroke="#a6a78c" stroke-width="1.1"/>
<polygon points="569.69,256.12 569.08,263.15 569.08,266.85 569.69,273.88 594.96,273.88 595.25,269.33 595.25,260.67 594.96,256.12" fill="#b08c67" stroke="#a6a78c" stroke-width="1.1"/>
<polygon points="594.96,252.18 595.25,247.63 595.25,238.97 594.96,234.42 569.69,234.42 569.08,241.45 569.08,245.15 569.69,252.18" fill="#b08c67" stroke="#a6a78c" stroke-width="1.1"/>
<polygon points="614.48,213.59 607.45,212.98 603.75,212.98 596.72,213.59 596.72,238.86 601.27,239.15 609.93,239.15 614.48,238.86" fill="#b08c67" stroke="#a6a78c" stroke-width="1.1"/>
<polygon points="618.42,238.86 622.97,239.15 631.63,239.15 636.18,238.86 636.18,213.59 629.15,212.98 625.45,212.98 618.42,213.59" fill="#b08c67" stroke="#a6a78c" stroke-width="1.1"/>
<polygon points="640.12,238.86 644.67,239.15 653.33,239.15 657.88,238.86 657.88,213.59 650.85,212.98 647.15,212.98 640.12,213.59" fill="#b08c67" stroke="#a6a78c" stroke-width="1.1"/>
<polygon points="679.58,213.59 672.55,212.98 668.85,212.98 661.82,213.59 661.82,238.86 666.37,239.15 670.80,239.15 675.03,239.15 679.58,238.86" fill="#b08c67" stroke="#a6a78c" stroke-width="1.1"/>
<polygon points="688.01,258.38 688.62,251.35 688.62,247.65 688.01,240.62 662.74,240.62 662.45,245.17 662.45,253.83 662.74,258.38" fill="#b08c67" stroke="#a6a78c" stroke-width="1.1"/>
<polygon points="227.40,265.00 314.20,265.00 314.20,327.00 227.40,327.00" fill="#426176" stroke="#cbb47d" stroke-width="1.1"/>
<polygon points="599.40,265.00 686.20,265.00 686.20,327.00 599.40,327.00" fill="#426176" stroke="#cbb47d" stroke-width="1.1"/>
<polygon points="627.30,479.68 686.20,479.68 686.20,521.53 627.30,521.53" fill="#426176" stroke="#cbb47d" stroke-width="1.1"/>
<circle cx="477.26001550000007" cy="525.0899844999999" r="7.083135048740746" fill="#2c6044" fill-opacity=".65" stroke="#d5e9ae" stroke-width="1"/><circle cx="477.26001550000007" cy="525.0899844999999" r="1.6" fill="#f1d391"/>
<circle cx="434.4800155" cy="518.5800155" r="6.673339612080851" fill="#2c6044" fill-opacity=".65" stroke="#d5e9ae" stroke-width="1"/><circle cx="434.4800155" cy="518.5800155" r="1.6" fill="#f1d391"/>
<circle cx="478.1899845" cy="584.9199845" r="6.673348419219947" fill="#2c6044" fill-opacity=".65" stroke="#d5e9ae" stroke-width="1"/><circle cx="478.1899845" cy="584.9199845" r="1.6" fill="#f1d391"/>
<circle cx="433.55" cy="590.5" r="7.492891966364388" fill="#2c6044" fill-opacity=".65" stroke="#d5e9ae" stroke-width="1"/><circle cx="433.55" cy="590.5" r="1.6" fill="#f1d391"/>
<circle cx="428.90000000000003" cy="662.42" r="5.697953038709358" fill="#2c6044" fill-opacity=".65" stroke="#d5e9ae" stroke-width="1"/><circle cx="428.90000000000003" cy="662.42" r="1.6" fill="#f1d391"/>
<circle cx="428.9000155" cy="829.2" r="5.316530999999985" fill="#2c6044" fill-opacity=".65" stroke="#d5e9ae" stroke-width="1"/><circle cx="428.9000155" cy="829.2" r="1.6" fill="#f1d391"/>
<circle cx="484.7" cy="662.42" r="5.682589645334178" fill="#2c6044" fill-opacity=".65" stroke="#d5e9ae" stroke-width="1"/><circle cx="484.7" cy="662.42" r="1.6" fill="#f1d391"/>
<circle cx="484.7" cy="829.2" r="5.316530999999985" fill="#2c6044" fill-opacity=".65" stroke="#d5e9ae" stroke-width="1"/><circle cx="484.7" cy="829.2" r="1.6" fill="#f1d391"/>
<circle cx="115.80000000000001" cy="593.599969" r="5.226710578841971" fill="#2c6044" fill-opacity=".65" stroke="#d5e9ae" stroke-width="1"/><circle cx="115.80000000000001" cy="593.599969" r="1.6" fill="#f1d391"/>
<circle cx="115.80000000000001" cy="618.399969" r="5.295473742677056" fill="#2c6044" fill-opacity=".65" stroke="#d5e9ae" stroke-width="1"/><circle cx="115.80000000000001" cy="618.399969" r="1.6" fill="#f1d391"/>
<circle cx="115.80000000000001" cy="667.999969" r="5.300797487082369" fill="#2c6044" fill-opacity=".65" stroke="#d5e9ae" stroke-width="1"/><circle cx="115.80000000000001" cy="667.999969" r="1.6" fill="#f1d391"/>
<circle cx="797.800031" cy="667.999969" r="5.464691701153771" fill="#2c6044" fill-opacity=".65" stroke="#d5e9ae" stroke-width="1"/><circle cx="797.800031" cy="667.999969" r="1.6" fill="#f1d391"/>
<circle cx="115.80000000000001" cy="717.599969" r="5.30376956083385" fill="#2c6044" fill-opacity=".65" stroke="#d5e9ae" stroke-width="1"/><circle cx="115.80000000000001" cy="717.599969" r="1.6" fill="#f1d391"/>
<circle cx="797.800031" cy="717.599969" r="5.536792775401067" fill="#2c6044" fill-opacity=".65" stroke="#d5e9ae" stroke-width="1"/><circle cx="797.800031" cy="717.599969" r="1.6" fill="#f1d391"/>
<circle cx="797.800031" cy="767.199969" r="5.500378253254363" fill="#2c6044" fill-opacity=".65" stroke="#d5e9ae" stroke-width="1"/><circle cx="797.800031" cy="767.199969" r="1.6" fill="#f1d391"/>
<circle cx="797.800031" cy="816.799969" r="5.5533927617995635" fill="#2c6044" fill-opacity=".65" stroke="#d5e9ae" stroke-width="1"/><circle cx="797.800031" cy="816.799969" r="1.6" fill="#f1d391"/>
<circle cx="509.5" cy="556.4000000000001" r="7.719757868891297" fill="#2c6044" fill-opacity=".65" stroke="#d5e9ae" stroke-width="1"/><circle cx="509.5" cy="556.4000000000001" r="1.6" fill="#f1d391"/>
<circle cx="404.1" cy="556.4000000000001" r="6.734034251137836" fill="#2c6044" fill-opacity=".65" stroke="#d5e9ae" stroke-width="1"/><circle cx="404.1" cy="556.4000000000001" r="1.6" fill="#f1d391"/>
<g font-family="sans-serif" fill="#e9d5aa"><text x="50" y="1048" font-size="16">Broader middle layers · Uneven branch tips · Three crown profiles</text><text x="50" y="1080" font-size="14">Every trunk, root, collision and tree height retained · No new triangles or images</text><text x="50" y="1112" font-size="13">Roof clearance ≥ 0.20m · Lower boughs below 2.4m do not expand</text><text x="50" y="1140" font-size="12">Owned lots and selected crown budgets shown, not roof footprints or final canopy outlines.</text></g></svg>
